#!OML:ASF F:\VICON\USERDATA\INSTALL\rory3\rory3.ASF
:FULLY-SPECIFIED
:DEGREES
34
root 0.501565 17.2438 -13.4624 5.06024 -6.05485 -5.81009
lowerback 18.1067 -0.450253 4.10773
upperback 2.00894 0.428827 2.54977
thorax -7.97924 0.111016 0.309538
lowerneck -4.08572 1.3243 0.259497
upperneck -12.0732 1.4932 -2.91504
head -3.1357 0.814064 -1.01037
rclavicle -9.24349e-015 -2.64384e-014
rhumerus -18.3358 8.11241 -79.6622
rradius 96.3415
rwrist -3.59038
rhand -34.0455 32.3278
rfingers 7.12502
rthumb -7.22351 2.47109
lclavicle -9.24349e-015 -2.64384e-014
lhumerus -47.1599 -18.1908 98.7534
lradius 99.6662
lwrist 28.6726
lhand -33.1108 14.0943
lfingers 7.12502
lthumb -6.32113 43.98
rfemur -12.7481 5.27341 32.3332
rtibia 40.7016
rfoot -17.8155 -8.08502
rtoes -11.5119
lfemur -27.7352 15.967 -7.66547
ltibia 120.987
lfoot 20.1502 -11.1898
ltoes -1.03439
35
root 0.494202 17.3264 -12.9362 5.26097 -5.79562 -6.07909
lowerback 17.9654 -0.149608 4.42911
upperback 1.78822 0.895073 2.60171
thorax -8.12703 0.321516 0.0708531
lowerneck -4.01813 1.04569 0.0704542
upperneck -11.5946 1.1631 -2.58675
head -2.99097 0.64631 -0.861471
rclavicle -7.40473e-015 -2.8625e-014
rhumerus -18.0117 8.11596 -79.4927
rradius 98.3532
rwrist -4.00552
rhand -34.2566 32.846
rfingers 7.12502
rthumb -7.42727 2.99637
lclavicle -7.40473e-015 -2.8625e-014
lhumerus -48.1514 -17.9353 99.2123
lradius 100.166
lwrist 29.5639
lhand -32.5697 12.9399
lfingers 7.12502
lthumb -5.79876 42.8405
rfemur -10.3707 5.32706 32.6221
rtibia 39.2824
rfoot -17.436 -8.24387
rtoes -15.617
lfemur -30.6341 15.4048 -8.34405
ltibia 120.012
lfoot 18.1118 -11.0183
ltoes -7.18921
36
root 0.492857 17.396 -12.4068 5.36909 -5.76997 -6.43035
lowerback 17.8329 0.200279 4.94303
upperback 1.68061 1.44666 2.52283
thorax -8.13979 0.566229 -0.438197
lowerneck -4.27522 0.730025 0.00451427
upperneck -11.1316 0.791722 -2.12985
head -2.79308 0.447631 -0.691549
rclavicle -1.73937e-015 3.77691e-015
rhumerus -17.7287 8.06065 -79.4454
rradius 100.327
rwrist -4.33237
rhand -34.3312 32.3181
rfingers 7.12502
rthumb -7.49926 2.47101
lclavicle -1.73937e-015 3.77691e-015
lhumerus -49.0547 -17.8893 99.3407
lradius 100.796
lwrist 30.3401
lhand -32.416 13.4676
lfingers 7.12502
lthumb -5.65037 43.3723
rfemur -7.58047 5.79951 32.9857
rtibia 37.5842
rfoot -16.3048 -8.08547
rtoes -18.1663
lfemur -33.2892 14.8683 -8.91319
ltibia 118.688
lfoot 16.123 -10.8329
ltoes -12.2418
37
root 0.495352 17.4605 -11.8828 5.52521 -5.7931 -7.03252
lowerback 17.7078 0.510313 5.77954
upperback 1.54699 2.00814 2.42246
thorax -8.16071 0.80276 -1.15198
lowerneck -4.60974 0.499268 0.0678715
upperneck -10.5733 0.529706 -1.68358
head -2.54839 0.299515 -0.550789
rclavicle 2.48481e-016 -1.72943e-014
rhumerus -17.6268 7.99193 -79.5756
rradius 102.278
rwrist -4.54622
rhand -33.9174 30.9318
rfingers 7.12502
rthumb -7.09979 1.0709
lclavicle 2.48481e-016 -1.72943e-014
lhumerus -49.8456 -17.8119 99.2296
lradius 101.319
lwrist 30.9807
lhand -32.0568 13.8665
lfingers 7.12502
lthumb -5.30359 43.7801
rfemur -4.85015 6.23287 33.5844
rtibia 35.6557
rfoot -14.4762 -7.42211
rtoes -19.7637
lfemur -36.1574 14.3663 -9.22588
ltibia 117.112
lfoot 14.8401 -10.8188
ltoes -12.3315
38
root 0.499644 17.5573 -11.3445 5.68223 -5.50166 -7.17303
lowerback 17.5259 0.753322 6.27178
upperback 1.08843 2.41929 2.19543
thorax -8.50728 0.960899 -1.77158
lowerneck -3.53995 0.291941 0.11345
upperneck -10.5177 0.297072 -1.10816
head -2.72206 0.171874 -0.376676
rclavicle 1.14301e-015 4.47266e-014
rhumerus -18.3415 8.00494 -79.8536
rradius 104.215
rwrist -4.95507
rhand -33.5781 30.6418
rfingers 7.12502
rthumb -6.77228 0.770071
lclavicle 1.14301e-015 4.47266e-014
lhumerus -51.3009 -17.7059 99.2587
lradius 102.003
lwrist 31.7872
lhand -31.8714 15.6148
lfingers 7.12502
lthumb -5.12457 45.5329
rfemur -2.24352 6.37272 33.673
rtibia 33.6043
rfoot -12.2071 -6.48603
rtoes -19.4633
lfemur -38.8702 13.0344 -10.2494
ltibia 114.863
lfoot 14.1394 -10.2537
ltoes -10.0994
39
root 0.512833 17.6749 -10.7806 5.91439 -5.33689 -7.15882
lowerback 17.2038 1.08334 6.80515
upperback 0.4788 2.93494 1.79618
thorax -8.91194 1.15338 -2.62348
lowerneck -1.7991 -0.0574547 0.479832
upperneck -10.8783 -0.139158 -0.736637
head -3.16544 -0.0647128 -0.317462
rclavicle 1.16786e-015 -3.60794e-014
rhumerus -19.4648 7.90276 -80.2148
rradius 106.117
rwrist -5.12061
rhand -33.1024 30.0273
rfingers 7.12502
rthumb -6.31307 0.141342
lclavicle 1.16786e-015 -3.60794e-014
lhumerus -53.2288 -17.8301 99.3908
lradius 102.543
lwrist 32.042
lhand -32.4222 15.9118
lfingers 7.12502
lthumb -5.65633 45.8164
rfemur 0.236159 6.55246 33.5043
rtibia 31.5415
rfoot -9.51831 -5.42108
rtoes -19.5012
lfemur -40.7657 11.652 -11.2652
ltibia 112.047
lfoot 12.4257 -9.33341
ltoes -11.3137
40
root 0.526257 17.7741 -10.2177 6.09393 -5.29037 -7.10657
lowerback 16.7995 1.39446 7.22214
upperback 0.278899 3.37038 1.43572
thorax -8.81902 1.33618 -3.33627
lowerneck -1.71795 -0.361165 0.677335
upperneck -10.8323 -0.516773 -0.441972
head -3.16688 -0.26905 -0.247731
rclavicle 1.62134e-014 1.3418e-014
rhumerus -19.7667 7.99637 -80.5051
rradius 107.87
rwrist -4.5403
rhand -31.6395 26.5282
rfingers 7.12502
rthumb -4.90069 -3.39513
lclavicle 1.62134e-014 1.3418e-014
lhumerus -54.5078 -17.6713 99.2788
lradius 102.722
lwrist 31.5014
lhand -32.7312 12.5913
lfingers 7.12502
lthumb -5.95469 42.4876
rfemur 2.7403 6.91793 33.3324
rtibia 29.3483
rfoot -6.37767 -4.54182
rtoes -20.5545
lfemur -42.108 10.5875 -12.0166
ltibia 109.083
lfoot 9.24852 -8.56869
ltoes -18.0022
41
root 0.537128 17.8632 -9.65949 6.35873 -5.17617 -7.11428
lowerback 16.2218 1.5809 7.51434
upperback 0.31286 3.60004 1.25177
thorax -8.40253 1.45039 -3.72132
lowerneck -2.75521 -0.499221 0.389407
upperneck -10.2574 -0.675976 -0.0720683
head -2.77841 -0.348494 -0.0785834
rclavicle 3.7502e-014 1.78409e-014
rhumerus -19.6233 9.05389 -80.7775
rradius 108.993
rwrist -6.29197
rhand -34.4584 32.2278
rfingers 7.12502
rthumb -7.62202 2.38517
lclavicle 3.7502e-014 1.78409e-014
lhumerus -55.3678 -16.855 98.9468
lradius 103.138
lwrist 30.9787
lhand -32.5071 10.9083
lfingers 7.12502
lthumb -5.73834 40.8106
rfemur 5.16211 7.16575 33.1904
rtibia 26.9143
rfoot -2.6158 -3.674
rtoes -20.1551
lfemur -43.6191 9.50342 -12.5895
ltibia 105.928
lfoot 9.83107 -7.60986
ltoes -11.1524
42
root 0.542622 17.9693 -9.11018 6.36787 -4.2739 -7.02495
lowerback 15.9853 1.42196 7.72481
upperback 0.337712 3.40243 1.21483
thorax -8.25109 1.35437 -3.82439
lowerneck -3.64697 -0.577465 0.00600398
upperneck -9.64619 -0.764177 0.121944
head -2.41145 -0.383426 0.0452685
rclavicle -2.21148e-014 2.01269e-014
rhumerus -19.4667 10.1119 -80.7919
rradius 110.073
rwrist -6.71832
rhand -34.1477 33.2719
rfingers 7.12502
rthumb -7.32214 3.41856
lclavicle -2.21148e-014 2.01269e-014
lhumerus -56.2225 -15.6853 98.6294
lradius 103.782
lwrist 30.8387
lhand -32.0587 12.3058
lfingers 7.12502
lthumb -5.30545 42.2194
rfemur 7.6889 6.84169 33.103
rtibia 24.3613
rfoot 1.65139 -3.29015
rtoes -18.4485
lfemur -45.1113 7.53476 -13.1078
ltibia 102.403
lfoot 9.29353 -6.57964
ltoes -10.3566
43
root 0.54983 18.0719 -8.54307 6.3087 -3.4007 -6.9115
lowerback 15.5502 1.27118 8.0182
upperback 0.432582 3.19839 1.0964
thorax -7.90463 1.26177 -4.05091
lowerneck -4.35029 -0.618846 -0.259727
upperneck -9.29275 -0.800501 0.298914
head -2.16939 -0.395985 0.142211
rclavicle 3.04109e-014 1.68097e-014
rhumerus -19.5541 11.1214 -80.9129
rradius 111.263
rwrist -6.88182
rhand -33.1792 32.1732
rfingers 7.12502
rthumb -6.38725 2.28947
lclavicle 3.04109e-014 1.68097e-014
lhumerus -56.8484 -14.6075 98.186
lradius 104.139
lwrist 30.8542
lhand -33.1661 25.0205
lfingers 7.12502
lthumb -6.37453 54.9046
rfemur 10.2941 6.55117 32.988
rtibia 21.7324
rfoot 6.18501 -3.43798
rtoes -15.9912
lfemur -46.061 5.58204 -13.4998
ltibia 98.5969
lfoot 8.33061 -5.72546
ltoes -12.6395
44
root 0.553155 18.1561 -7.97777 6.32237 -2.64759 -6.66848
lowerback 15.2097 1.20098 8.13071
upperback 0.381841 3.07822 0.883142
thorax -7.76578 1.20163 -4.30503
lowerneck -4.97428 -0.654613 -0.539866
upperneck -8.78642 -0.818522 0.599881
head -1.89431 -0.400917 0.278474
rclavicle -4.61553e-014 1.09456e-014
rhumerus -20.0564 12.0211 -81.1664
rradius 112.413
rwrist -7.03178
rhand -32.2159 30.7601
rfingers 7.12502
rthumb -5.45718 0.850411
lclavicle -4.61553e-014 1.09456e-014
lhumerus -57.6687 -13.6104 97.7071
lradius 104.38
lwrist 30.6994
lhand -33.2006 24.6147
lfingers 7.12502
lthumb -6.40785 54.4978
rfemur 12.8663 6.3514 32.7779
rtibia 18.9292
rfoot 11.2309 -4.06766
rtoes -9.29891
lfemur -46.8224 3.83195 -13.8984
ltibia 94.5727
lfoot 8.01639 -5.05625
ltoes -13.2516
